<svg id="visual" viewBox="0 0 6000 4000" width="6000" height="4000" xmlns="http://www.w3.org/2000/svg" xmlns:xlink="http://www.w3.org/1999/xlink" version="1.1"><g stroke-width="1" stroke-linejoin="bevel"><path d="M2999 1992L2735 2015L3003 2278.7Z" fill="#0e6290" stroke="#0e6290"></path><path d="M2735 2015L2673 2235.7L3003 2278.7Z" fill="#09263a" stroke="#09263a"></path><path d="M2716 2560.4L2973 2525.4L3003 2278.7Z" fill="#0e6290" stroke="#0e6290"></path><path d="M3336 2327.7L3288 2035L3003 2278.7Z" fill="#09263a" stroke="#09263a"></path><path d="M3003 2278.7L3288 2035L2999 1992Z" fill="#071b2a" stroke="#071b2a"></path><path d="M3263 1743.3L3028 1726.3L2999 1992Z" fill="#071b2a" stroke="#071b2a"></path><path d="M2999 1992L2752 1699.3L2735 2015Z" fill="#0f557e" stroke="#0f557e"></path><path d="M2673 2235.7L2716 2560.4L3003 2278.7Z" fill="#0e6290" stroke="#0e6290"></path><path d="M3028 1726.3L2752 1699.3L2999 1992Z" fill="#0d6fa3" stroke="#0d6fa3"></path><path d="M2735 2015L2359 2000L2673 2235.7Z" fill="#09263a" stroke="#09263a"></path><path d="M2973 2525.4L3336 2327.7L3003 2278.7Z" fill="#071b2a" stroke="#071b2a"></path><path d="M2442 1742.3L2359 2000L2735 2015Z" fill="#09263a" stroke="#09263a"></path><path d="M2673 2235.7L2410 2585.4L2716 2560.4Z" fill="#0e6290" stroke="#0e6290"></path><path d="M2359 2000L2359 2301.7L2673 2235.7Z" fill="#0d6fa3" stroke="#0d6fa3"></path><path d="M3628 2008L3263 1743.3L3288 2035Z" fill="#071b2a" stroke="#071b2a"></path><path d="M3288 2035L3263 1743.3L2999 1992Z" fill="#0d6fa3" stroke="#0d6fa3"></path><path d="M3028 1726.3L2744 1425.6L2752 1699.3Z" fill="#0b314a" stroke="#0b314a"></path><path d="M2752 1699.3L2442 1742.3L2735 2015Z" fill="#00101c" stroke="#00101c"></path><path d="M3307 2882.1L3336 2555.4L2973 2525.4Z" fill="#0e496c" stroke="#0e496c"></path><path d="M2973 2525.4L3336 2555.4L3336 2327.7Z" fill="#00101c" stroke="#00101c"></path><path d="M2359 2301.7L2410 2585.4L2673 2235.7Z" fill="#0b314a" stroke="#0b314a"></path><path d="M2716 2560.4L2755 2863.1L2973 2525.4Z" fill="#0a7cb6" stroke="#0a7cb6"></path><path d="M3038 1388.6L2744 1425.6L3028 1726.3Z" fill="#0e6290" stroke="#0e6290"></path><path d="M2752 1699.3L2744 1425.6L2442 1742.3Z" fill="#0f557e" stroke="#0f557e"></path><path d="M2433 2842.1L2755 2863.1L2716 2560.4Z" fill="#09263a" stroke="#09263a"></path><path d="M3605 2519.4L3598 2330.7L3336 2327.7Z" fill="#071b2a" stroke="#071b2a"></path><path d="M3336 2327.7L3628 2008L3288 2035Z" fill="#0d3d5b" stroke="#0d3d5b"></path><path d="M3598 2330.7L3628 2008L3336 2327.7Z" fill="#048ac9" stroke="#048ac9"></path><path d="M3251 1419.6L3028 1726.3L3263 1743.3Z" fill="#071b2a" stroke="#071b2a"></path><path d="M3251 1419.6L3038 1388.6L3028 1726.3Z" fill="#00101c" stroke="#00101c"></path><path d="M2755 2863.1L2989 2903.1L2973 2525.4Z" fill="#0a7cb6" stroke="#0a7cb6"></path><path d="M3336 2555.4L3605 2519.4L3336 2327.7Z" fill="#071b2a" stroke="#071b2a"></path><path d="M2058 2020L2103 2311.7L2359 2000Z" fill="#0d6fa3" stroke="#0d6fa3"></path><path d="M2359 2000L2103 2311.7L2359 2301.7Z" fill="#0f557e" stroke="#0f557e"></path><path d="M2359 2301.7L2105 2515.4L2410 2585.4Z" fill="#00101c" stroke="#00101c"></path><path d="M3597 1681.3L3251 1419.6L3263 1743.3Z" fill="#0d3d5b" stroke="#0d3d5b"></path><path d="M3555 2840.1L3605 2519.4L3336 2555.4Z" fill="#00101c" stroke="#00101c"></path><path d="M3598 2330.7L3872 2005L3628 2008Z" fill="#0b314a" stroke="#0b314a"></path><path d="M2108 1665.3L2359 2000L2442 1742.3Z" fill="#048ac9" stroke="#048ac9"></path><path d="M2108 1665.3L2058 2020L2359 2000Z" fill="#0e6290" stroke="#0e6290"></path><path d="M2048 2866.1L2433 2842.1L2410 2585.4Z" fill="#0e496c" stroke="#0e496c"></path><path d="M2410 2585.4L2433 2842.1L2716 2560.4Z" fill="#071b2a" stroke="#071b2a"></path><path d="M2755 2863.1L2990 3123.9L2989 2903.1Z" fill="#048ac9" stroke="#048ac9"></path><path d="M3628 2008L3597 1681.3L3263 1743.3Z" fill="#0b314a" stroke="#0b314a"></path><path d="M2989 2903.1L3307 2882.1L2973 2525.4Z" fill="#0e6290" stroke="#0e6290"></path><path d="M1841 2571.4L2105 2515.4L2103 2311.7Z" fill="#0b314a" stroke="#0b314a"></path><path d="M2103 2311.7L2105 2515.4L2359 2301.7Z" fill="#071b2a" stroke="#071b2a"></path><path d="M2686 1102.9L2369 1409.6L2744 1425.6Z" fill="#071b2a" stroke="#071b2a"></path><path d="M2744 1425.6L2369 1409.6L2442 1742.3Z" fill="#048ac9" stroke="#048ac9"></path><path d="M2369 1409.6L2108 1665.3L2442 1742.3Z" fill="#0e6290" stroke="#0e6290"></path><path d="M3307 2882.1L3555 2840.1L3336 2555.4Z" fill="#0b314a" stroke="#0b314a"></path><path d="M2755 3178.9L2990 3123.9L2755 2863.1Z" fill="#0b314a" stroke="#0b314a"></path><path d="M2989 2903.1L3244 3090.9L3307 2882.1Z" fill="#0b314a" stroke="#0b314a"></path><path d="M3307 2882.1L3586 3161.9L3555 2840.1Z" fill="#09263a" stroke="#09263a"></path><path d="M3955 2296.7L3872 2005L3598 2330.7Z" fill="#0a7cb6" stroke="#0a7cb6"></path><path d="M3628 2008L3891 1761.3L3597 1681.3Z" fill="#0f557e" stroke="#0f557e"></path><path d="M3870 2536.4L3598 2330.7L3605 2519.4Z" fill="#0b314a" stroke="#0b314a"></path><path d="M2369 1409.6L2128 1465.6L2108 1665.3Z" fill="#0d3d5b" stroke="#0d3d5b"></path><path d="M1772 1970L1825 2230.7L2058 2020Z" fill="#0e496c" stroke="#0e496c"></path><path d="M3337 1191.9L2957 1120.9L3038 1388.6Z" fill="#0f557e" stroke="#0f557e"></path><path d="M3038 1388.6L2957 1120.9L2744 1425.6Z" fill="#0f557e" stroke="#0f557e"></path><path d="M2369 1409.6L2370 1144.9L2128 1465.6Z" fill="#0d3d5b" stroke="#0d3d5b"></path><path d="M3337 1191.9L3038 1388.6L3251 1419.6Z" fill="#00101c" stroke="#00101c"></path><path d="M2990 3123.9L3244 3090.9L2989 2903.1Z" fill="#00101c" stroke="#00101c"></path><path d="M2433 2842.1L2755 3178.9L2755 2863.1Z" fill="#0f557e" stroke="#0f557e"></path><path d="M3317 3400.6L3586 3161.9L3244 3090.9Z" fill="#09263a" stroke="#09263a"></path><path d="M2347 3183.9L2755 3178.9L2433 2842.1Z" fill="#0f557e" stroke="#0f557e"></path><path d="M3655 1388.6L3251 1419.6L3597 1681.3Z" fill="#048ac9" stroke="#048ac9"></path><path d="M3655 1388.6L3337 1191.9L3251 1419.6Z" fill="#048ac9" stroke="#048ac9"></path><path d="M2957 1120.9L2686 1102.9L2744 1425.6Z" fill="#0d6fa3" stroke="#0d6fa3"></path><path d="M1772 1970L2058 2020L1770 1725.3Z" fill="#00101c" stroke="#00101c"></path><path d="M2058 2020L1825 2230.7L2103 2311.7Z" fill="#00101c" stroke="#00101c"></path><path d="M2105 2515.4L2048 2866.1L2410 2585.4Z" fill="#0d3d5b" stroke="#0d3d5b"></path><path d="M3848 2856.1L3870 2536.4L3605 2519.4Z" fill="#0a7cb6" stroke="#0a7cb6"></path><path d="M3886 1447.6L3655 1388.6L3597 1681.3Z" fill="#0d3d5b" stroke="#0d3d5b"></path><path d="M4158 1711.3L3891 1761.3L3872 2005Z" fill="#071b2a" stroke="#071b2a"></path><path d="M3872 2005L3891 1761.3L3628 2008Z" fill="#09263a" stroke="#09263a"></path><path d="M3870 2536.4L3955 2296.7L3598 2330.7Z" fill="#0a7cb6" stroke="#0a7cb6"></path><path d="M1841 2571.4L2048 2866.1L2105 2515.4Z" fill="#048ac9" stroke="#048ac9"></path><path d="M2686 1102.9L2370 1144.9L2369 1409.6Z" fill="#0e496c" stroke="#0e496c"></path><path d="M1770 1725.3L2058 2020L2108 1665.3Z" fill="#0d6fa3" stroke="#0d6fa3"></path><path d="M1776 2845.1L1841 2571.4L1520 2605.4Z" fill="#0e496c" stroke="#0e496c"></path><path d="M1825 2230.7L1841 2571.4L2103 2311.7Z" fill="#048ac9" stroke="#048ac9"></path><path d="M2048 2866.1L2347 3183.9L2433 2842.1Z" fill="#0f557e" stroke="#0f557e"></path><path d="M1761 1378.6L2108 1665.3L2128 1465.6Z" fill="#0d6fa3" stroke="#0d6fa3"></path><path d="M1761 1378.6L1770 1725.3L2108 1665.3Z" fill="#0e496c" stroke="#0e496c"></path><path d="M3881 1114.9L3580 1172.9L3655 1388.6Z" fill="#0b314a" stroke="#0b314a"></path><path d="M3655 1388.6L3580 1172.9L3337 1191.9Z" fill="#0d6fa3" stroke="#0d6fa3"></path><path d="M3337 1191.9L2993 894.1L2957 1120.9Z" fill="#0f557e" stroke="#0f557e"></path><path d="M3555 2840.1L3848 2856.1L3605 2519.4Z" fill="#0e6290" stroke="#0e6290"></path><path d="M4206 2550.4L4244 2250.7L3955 2296.7Z" fill="#09263a" stroke="#09263a"></path><path d="M3586 3161.9L3848 2856.1L3555 2840.1Z" fill="#0e496c" stroke="#0e496c"></path><path d="M4158 1711.3L3886 1447.6L3891 1761.3Z" fill="#00101c" stroke="#00101c"></path><path d="M3891 1761.3L3886 1447.6L3597 1681.3Z" fill="#0b314a" stroke="#0b314a"></path><path d="M3317 3400.6L3244 3090.9L2990 3123.9Z" fill="#0f557e" stroke="#0f557e"></path><path d="M3244 3090.9L3586 3161.9L3307 2882.1Z" fill="#0d3d5b" stroke="#0d3d5b"></path><path d="M3333 840.1L2993 894.1L3337 1191.9Z" fill="#09263a" stroke="#09263a"></path><path d="M2957 1120.9L2993 894.1L2686 1102.9Z" fill="#00101c" stroke="#00101c"></path><path d="M2686 1102.9L2429 835.1L2370 1144.9Z" fill="#0a7cb6" stroke="#0a7cb6"></path><path d="M2133 871.1L2063 1113.9L2370 1144.9Z" fill="#0e6290" stroke="#0e6290"></path><path d="M2370 1144.9L2063 1113.9L2128 1465.6Z" fill="#071b2a" stroke="#071b2a"></path><path d="M1510 2311.7L1841 2571.4L1825 2230.7Z" fill="#0e496c" stroke="#0e496c"></path><path d="M1841 2571.4L1776 2845.1L2048 2866.1Z" fill="#0e6290" stroke="#0e6290"></path><path d="M2048 2866.1L2082 3196.9L2347 3183.9Z" fill="#00101c" stroke="#00101c"></path><path d="M1510 2311.7L1825 2230.7L1478 2012Z" fill="#048ac9" stroke="#048ac9"></path><path d="M2713 3472.6L2975 3448.6L2755 3178.9Z" fill="#0d3d5b" stroke="#0d3d5b"></path><path d="M2755 3178.9L2975 3448.6L2990 3123.9Z" fill="#0e496c" stroke="#0e496c"></path><path d="M1747 3088.9L2082 3196.9L2048 2866.1Z" fill="#0b314a" stroke="#0b314a"></path><path d="M2363 3386.6L2713 3472.6L2755 3178.9Z" fill="#0e6290" stroke="#0e6290"></path><path d="M2975 3448.6L3317 3400.6L2990 3123.9Z" fill="#09263a" stroke="#09263a"></path><path d="M2363 3386.6L2755 3178.9L2347 3183.9Z" fill="#048ac9" stroke="#048ac9"></path><path d="M4252 1992L4158 1711.3L3872 2005Z" fill="#0a7cb6" stroke="#0a7cb6"></path><path d="M4252 1992L3872 2005L3955 2296.7Z" fill="#0b314a" stroke="#0b314a"></path><path d="M2993 894.1L2683 801.1L2686 1102.9Z" fill="#0a7cb6" stroke="#0a7cb6"></path><path d="M2063 1113.9L1761 1378.6L2128 1465.6Z" fill="#09263a" stroke="#09263a"></path><path d="M1478 2012L1825 2230.7L1772 1970Z" fill="#00101c" stroke="#00101c"></path><path d="M2082 3196.9L2363 3386.6L2347 3183.9Z" fill="#0d3d5b" stroke="#0d3d5b"></path><path d="M4206 2550.4L3955 2296.7L3870 2536.4Z" fill="#048ac9" stroke="#048ac9"></path><path d="M3545 901.1L3337 1191.9L3580 1172.9Z" fill="#0d3d5b" stroke="#0d3d5b"></path><path d="M3545 901.1L3333 840.1L3337 1191.9Z" fill="#0d3d5b" stroke="#0d3d5b"></path><path d="M2993 894.1L3030 528.4L2683 801.1Z" fill="#09263a" stroke="#09263a"></path><path d="M3545 901.1L3580 1172.9L3881 1114.9Z" fill="#048ac9" stroke="#048ac9"></path><path d="M2683 801.1L2429 835.1L2686 1102.9Z" fill="#0f557e" stroke="#0f557e"></path><path d="M1553 1683.3L1772 1970L1770 1725.3Z" fill="#0d3d5b" stroke="#0d3d5b"></path><path d="M4244 2250.7L4252 1992L3955 2296.7Z" fill="#0d3d5b" stroke="#0d3d5b"></path><path d="M4168 2896.1L3870 2536.4L3848 2856.1Z" fill="#09263a" stroke="#09263a"></path><path d="M4168 2896.1L4206 2550.4L3870 2536.4Z" fill="#09263a" stroke="#09263a"></path><path d="M1761 1378.6L1553 1683.3L1770 1725.3Z" fill="#09263a" stroke="#09263a"></path><path d="M3881 1114.9L3655 1388.6L3886 1447.6Z" fill="#0f557e" stroke="#0f557e"></path><path d="M1553 1683.3L1478 2012L1772 1970Z" fill="#071b2a" stroke="#071b2a"></path><path d="M4163 1162.9L3881 1114.9L3886 1447.6Z" fill="#048ac9" stroke="#048ac9"></path><path d="M3317 3400.6L3600 3376.6L3586 3161.9Z" fill="#0a7cb6" stroke="#0a7cb6"></path><path d="M3586 3161.9L3871 3172.9L3848 2856.1Z" fill="#0d3d5b" stroke="#0d3d5b"></path><path d="M3341 3768.3L3600 3376.6L3317 3400.6Z" fill="#048ac9" stroke="#048ac9"></path><path d="M3600 3376.6L3871 3172.9L3586 3161.9Z" fill="#0e6290" stroke="#0e6290"></path><path d="M1510 2311.7L1520 2605.4L1841 2571.4Z" fill="#0e496c" stroke="#0e496c"></path><path d="M1776 2845.1L1747 3088.9L2048 2866.1Z" fill="#071b2a" stroke="#071b2a"></path><path d="M1235 2574.4L1520 2605.4L1510 2311.7Z" fill="#071b2a" stroke="#071b2a"></path><path d="M2429 835.1L2133 871.1L2370 1144.9Z" fill="#0d3d5b" stroke="#0d3d5b"></path><path d="M2063 1113.9L1806 1118.9L1761 1378.6Z" fill="#0f557e" stroke="#0f557e"></path><path d="M2398 535.4L2133 871.1L2429 835.1Z" fill="#0d3d5b" stroke="#0d3d5b"></path><path d="M4487 1447.6L4171 1425.6L4158 1711.3Z" fill="#09263a" stroke="#09263a"></path><path d="M4158 1711.3L4171 1425.6L3886 1447.6Z" fill="#09263a" stroke="#09263a"></path><path d="M1519 2873.1L1747 3088.9L1776 2845.1Z" fill="#0b314a" stroke="#0b314a"></path><path d="M2082 3196.9L2046 3425.6L2363 3386.6Z" fill="#0d3d5b" stroke="#0d3d5b"></path><path d="M1787 865.1L1806 1118.9L2063 1113.9Z" fill="#0a7cb6" stroke="#0a7cb6"></path><path d="M1761 1378.6L1473 1425.6L1553 1683.3Z" fill="#0e496c" stroke="#0e496c"></path><path d="M3871 3172.9L4168 2896.1L3848 2856.1Z" fill="#0e496c" stroke="#0e496c"></path><path d="M4479 2334.7L4484 2013L4244 2250.7Z" fill="#0d3d5b" stroke="#0d3d5b"></path><path d="M1777 3451.6L2046 3425.6L2082 3196.9Z" fill="#048ac9" stroke="#048ac9"></path><path d="M2384 3706.3L2727 3717.3L2713 3472.6Z" fill="#09263a" stroke="#09263a"></path><path d="M1191 2814.1L1519 2873.1L1520 2605.4Z" fill="#071b2a" stroke="#071b2a"></path><path d="M1520 2605.4L1519 2873.1L1776 2845.1Z" fill="#0d6fa3" stroke="#0d6fa3"></path><path d="M1747 3088.9L1777 3451.6L2082 3196.9Z" fill="#0e6290" stroke="#0e6290"></path><path d="M1463 1109.9L1473 1425.6L1761 1378.6Z" fill="#00101c" stroke="#00101c"></path><path d="M1150 2022L1161 2254.7L1478 2012Z" fill="#0d3d5b" stroke="#0d3d5b"></path><path d="M2713 3472.6L2727 3717.3L2975 3448.6Z" fill="#0f557e" stroke="#0f557e"></path><path d="M2975 3448.6L3341 3768.3L3317 3400.6Z" fill="#0d3d5b" stroke="#0d3d5b"></path><path d="M2384 3706.3L2713 3472.6L2363 3386.6Z" fill="#048ac9" stroke="#048ac9"></path><path d="M4244 2250.7L4484 2013L4252 1992Z" fill="#0e496c" stroke="#0e496c"></path><path d="M4252 1992L4477 1734.3L4158 1711.3Z" fill="#0b314a" stroke="#0b314a"></path><path d="M4479 2334.7L4244 2250.7L4206 2550.4Z" fill="#00101c" stroke="#00101c"></path><path d="M4482 1130.9L4163 1162.9L4171 1425.6Z" fill="#071b2a" stroke="#071b2a"></path><path d="M4171 1425.6L4163 1162.9L3886 1447.6Z" fill="#09263a" stroke="#09263a"></path><path d="M3587 535.4L3333 840.1L3545 901.1Z" fill="#0f557e" stroke="#0f557e"></path><path d="M4456 2573.4L4479 2334.7L4206 2550.4Z" fill="#0e496c" stroke="#0e496c"></path><path d="M3337 538.4L3030 528.4L3333 840.1Z" fill="#0b314a" stroke="#0b314a"></path><path d="M3333 840.1L3030 528.4L2993 894.1Z" fill="#0e6290" stroke="#0e6290"></path><path d="M2683 801.1L2398 535.4L2429 835.1Z" fill="#0d3d5b" stroke="#0d3d5b"></path><path d="M3337 538.4L3333 840.1L3587 535.4Z" fill="#0a7cb6" stroke="#0a7cb6"></path><path d="M3030 528.4L2733 522.4L2683 801.1Z" fill="#0e6290" stroke="#0e6290"></path><path d="M3871 3172.9L4163 3129.9L4168 2896.1Z" fill="#00101c" stroke="#00101c"></path><path d="M4168 2896.1L4456 2573.4L4206 2550.4Z" fill="#0d6fa3" stroke="#0d6fa3"></path><path d="M4229 3400.6L4163 3129.9L3871 3172.9Z" fill="#0d6fa3" stroke="#0d6fa3"></path><path d="M2727 3717.3L2963 3767.3L2975 3448.6Z" fill="#0d6fa3" stroke="#0d6fa3"></path><path d="M3600 3376.6L3905 3483.6L3871 3172.9Z" fill="#048ac9" stroke="#048ac9"></path><path d="M4545 2879.1L4456 2573.4L4168 2896.1Z" fill="#0e496c" stroke="#0e496c"></path><path d="M2155 3667.3L2384 3706.3L2363 3386.6Z" fill="#09263a" stroke="#09263a"></path><path d="M2713 4000L2985 4000L2963 3767.3Z" fill="#0e496c" stroke="#0e496c"></path><path d="M4484 2013L4477 1734.3L4252 1992Z" fill="#071b2a" stroke="#071b2a"></path><path d="M3920 821.1L3545 901.1L3881 1114.9Z" fill="#0a7cb6" stroke="#0a7cb6"></path><path d="M1237 3186.9L1520 3105.9L1519 2873.1Z" fill="#071b2a" stroke="#071b2a"></path><path d="M1519 2873.1L1520 3105.9L1747 3088.9Z" fill="#0e6290" stroke="#0e6290"></path><path d="M2046 3425.6L2155 3667.3L2363 3386.6Z" fill="#0d3d5b" stroke="#0d3d5b"></path><path d="M2733 522.4L2398 535.4L2683 801.1Z" fill="#0d3d5b" stroke="#0d3d5b"></path><path d="M2133 871.1L1787 865.1L2063 1113.9Z" fill="#0a7cb6" stroke="#0a7cb6"></path><path d="M1806 1118.9L1463 1109.9L1761 1378.6Z" fill="#0d3d5b" stroke="#0d3d5b"></path><path d="M2068 579.4L1787 865.1L2133 871.1Z" fill="#0f557e" stroke="#0f557e"></path><path d="M4224 875.1L3920 821.1L3881 1114.9Z" fill="#071b2a" stroke="#071b2a"></path><path d="M1792 3674.3L2155 3667.3L2046 3425.6Z" fill="#0d6fa3" stroke="#0d6fa3"></path><path d="M3640 3766.3L3905 3483.6L3600 3376.6Z" fill="#0a7cb6" stroke="#0a7cb6"></path><path d="M2963 3767.3L3341 3768.3L2975 3448.6Z" fill="#00101c" stroke="#00101c"></path><path d="M1161 2254.7L1510 2311.7L1478 2012Z" fill="#0d3d5b" stroke="#0d3d5b"></path><path d="M1161 2254.7L1235 2574.4L1510 2311.7Z" fill="#071b2a" stroke="#071b2a"></path><path d="M1520 3105.9L1777 3451.6L1747 3088.9Z" fill="#0d6fa3" stroke="#0d6fa3"></path><path d="M1150 2022L1478 2012L1185 1672.3Z" fill="#00101c" stroke="#00101c"></path><path d="M1185 1672.3L1478 2012L1553 1683.3Z" fill="#048ac9" stroke="#048ac9"></path><path d="M1787 865.1L1463 1109.9L1806 1118.9Z" fill="#09263a" stroke="#09263a"></path><path d="M1473 1425.6L1185 1672.3L1553 1683.3Z" fill="#0b314a" stroke="#0b314a"></path><path d="M4477 1734.3L4487 1447.6L4158 1711.3Z" fill="#0e6290" stroke="#0e6290"></path><path d="M4163 1162.9L4224 875.1L3881 1114.9Z" fill="#0d6fa3" stroke="#0d6fa3"></path><path d="M4760 1666.3L4487 1447.6L4477 1734.3Z" fill="#0e6290" stroke="#0e6290"></path><path d="M3920 821.1L3587 535.4L3545 901.1Z" fill="#0a7cb6" stroke="#0a7cb6"></path><path d="M3322 327.7L2984 310.7L3030 528.4Z" fill="#0e496c" stroke="#0e496c"></path><path d="M3030 528.4L2984 310.7L2733 522.4Z" fill="#0e6290" stroke="#0e6290"></path><path d="M2398 535.4L2068 579.4L2133 871.1Z" fill="#071b2a" stroke="#071b2a"></path><path d="M1787 865.1L1478 807.1L1463 1109.9Z" fill="#0d3d5b" stroke="#0d3d5b"></path><path d="M1181 1439.6L1185 1672.3L1473 1425.6Z" fill="#0d3d5b" stroke="#0d3d5b"></path><path d="M3341 3768.3L3640 3766.3L3600 3376.6Z" fill="#0e496c" stroke="#0e496c"></path><path d="M1235 2574.4L1191 2814.1L1520 2605.4Z" fill="#09263a" stroke="#09263a"></path><path d="M1488 3465.6L1792 3674.3L1777 3451.6Z" fill="#0f557e" stroke="#0f557e"></path><path d="M935 2833.1L1191 2814.1L1235 2574.4Z" fill="#0e6290" stroke="#0e6290"></path><path d="M4536 3179.9L4545 2879.1L4163 3129.9Z" fill="#0d3d5b" stroke="#0d3d5b"></path><path d="M4163 3129.9L4545 2879.1L4168 2896.1Z" fill="#0d3d5b" stroke="#0d3d5b"></path><path d="M4830 2305.7L4770 2052L4479 2334.7Z" fill="#071b2a" stroke="#071b2a"></path><path d="M4479 2334.7L4770 2052L4484 2013Z" fill="#0f557e" stroke="#0f557e"></path><path d="M4484 2013L4770 2052L4477 1734.3Z" fill="#09263a" stroke="#09263a"></path><path d="M4229 3400.6L3871 3172.9L3905 3483.6Z" fill="#0a7cb6" stroke="#0a7cb6"></path><path d="M3322 327.7L3030 528.4L3337 538.4Z" fill="#0e496c" stroke="#0e496c"></path><path d="M2733 522.4L2690 290.7L2398 535.4Z" fill="#0d6fa3" stroke="#0d6fa3"></path><path d="M2398 535.4L2053 251.7L2068 579.4Z" fill="#0d3d5b" stroke="#0d3d5b"></path><path d="M1236 1188.9L1181 1439.6L1473 1425.6Z" fill="#09263a" stroke="#09263a"></path><path d="M943 1744.3L946 2049L1150 2022Z" fill="#0b314a" stroke="#0b314a"></path><path d="M4482 1130.9L4224 875.1L4163 1162.9Z" fill="#00101c" stroke="#00101c"></path><path d="M3920 821.1L3939 574.4L3587 535.4Z" fill="#0f557e" stroke="#0f557e"></path><path d="M4155 3667.3L4229 3400.6L3905 3483.6Z" fill="#0b314a" stroke="#0b314a"></path><path d="M2984 310.7L2690 290.7L2733 522.4Z" fill="#0f557e" stroke="#0f557e"></path><path d="M1797 331.7L1800 619.4L2068 579.4Z" fill="#071b2a" stroke="#071b2a"></path><path d="M2068 579.4L1800 619.4L1787 865.1Z" fill="#0d3d5b" stroke="#0d3d5b"></path><path d="M1463 1109.9L1236 1188.9L1473 1425.6Z" fill="#0e496c" stroke="#0e496c"></path><path d="M3631 234.7L3322 327.7L3587 535.4Z" fill="#048ac9" stroke="#048ac9"></path><path d="M3587 535.4L3322 327.7L3337 538.4Z" fill="#09263a" stroke="#09263a"></path><path d="M2693 0L2421 240.7L2690 290.7Z" fill="#09263a" stroke="#09263a"></path><path d="M2713 4000L2963 3767.3L2727 3717.3Z" fill="#048ac9" stroke="#048ac9"></path><path d="M2963 3767.3L2985 4000L3341 3768.3Z" fill="#0a7cb6" stroke="#0a7cb6"></path><path d="M3341 3768.3L3572 4000L3640 3766.3Z" fill="#071b2a" stroke="#071b2a"></path><path d="M2713 4000L2727 3717.3L2384 3706.3Z" fill="#0e6290" stroke="#0e6290"></path><path d="M2366 4000L2713 4000L2384 3706.3Z" fill="#048ac9" stroke="#048ac9"></path><path d="M2366 4000L2384 3706.3L2139 4000Z" fill="#0e496c" stroke="#0e496c"></path><path d="M1488 3465.6L1777 3451.6L1520 3105.9Z" fill="#0d6fa3" stroke="#0d6fa3"></path><path d="M1777 3451.6L1792 3674.3L2046 3425.6Z" fill="#048ac9" stroke="#048ac9"></path><path d="M4249 611.4L3939 574.4L3920 821.1Z" fill="#09263a" stroke="#09263a"></path><path d="M4786 1090.9L4482 1130.9L4487 1447.6Z" fill="#0b314a" stroke="#0b314a"></path><path d="M4487 1447.6L4482 1130.9L4171 1425.6Z" fill="#0d6fa3" stroke="#0d6fa3"></path><path d="M4224 875.1L4249 611.4L3920 821.1Z" fill="#0e496c" stroke="#0e496c"></path><path d="M4830 2305.7L4479 2334.7L4846 2543.4Z" fill="#09263a" stroke="#09263a"></path><path d="M1254 901.1L1236 1188.9L1463 1109.9Z" fill="#0d6fa3" stroke="#0d6fa3"></path><path d="M2985 4000L3352 4000L3341 3768.3Z" fill="#09263a" stroke="#09263a"></path><path d="M3640 3766.3L3921 3752.3L3905 3483.6Z" fill="#0d6fa3" stroke="#0d6fa3"></path><path d="M3950 4000L3921 3752.3L3640 3766.3Z" fill="#0d6fa3" stroke="#0d6fa3"></path><path d="M1237 3186.9L1488 3465.6L1520 3105.9Z" fill="#09263a" stroke="#09263a"></path><path d="M1800 619.4L1478 807.1L1787 865.1Z" fill="#0d6fa3" stroke="#0d6fa3"></path><path d="M2139 4000L2384 3706.3L2155 3667.3Z" fill="#0d6fa3" stroke="#0d6fa3"></path><path d="M943 1744.3L1185 1672.3L1181 1439.6Z" fill="#048ac9" stroke="#048ac9"></path><path d="M943 1744.3L1150 2022L1185 1672.3Z" fill="#09263a" stroke="#09263a"></path><path d="M1150 2022L946 2049L1161 2254.7Z" fill="#00101c" stroke="#00101c"></path><path d="M1161 2254.7L946 2317.7L1235 2574.4Z" fill="#0d3d5b" stroke="#0d3d5b"></path><path d="M4770 2052L4760 1666.3L4477 1734.3Z" fill="#0f557e" stroke="#0f557e"></path><path d="M946 2049L946 2317.7L1161 2254.7Z" fill="#0e6290" stroke="#0e6290"></path><path d="M1191 2814.1L1237 3186.9L1519 2873.1Z" fill="#0e6290" stroke="#0e6290"></path><path d="M948 3176.9L1237 3186.9L1191 2814.1Z" fill="#0e496c" stroke="#0e496c"></path><path d="M2990 0L2690 290.7L2984 310.7Z" fill="#048ac9" stroke="#048ac9"></path><path d="M2690 290.7L2421 240.7L2398 535.4Z" fill="#071b2a" stroke="#071b2a"></path><path d="M1152 565.4L1254 901.1L1478 807.1Z" fill="#0e496c" stroke="#0e496c"></path><path d="M4229 3400.6L4536 3179.9L4163 3129.9Z" fill="#0a7cb6" stroke="#0a7cb6"></path><path d="M4846 2543.4L4479 2334.7L4456 2573.4Z" fill="#0d3d5b" stroke="#0d3d5b"></path><path d="M4529 3396.6L4536 3179.9L4229 3400.6Z" fill="#0b314a" stroke="#0b314a"></path><path d="M4846 2543.4L4456 2573.4L4545 2879.1Z" fill="#0d6fa3" stroke="#0d6fa3"></path><path d="M5049 1700.3L4840 1455.6L4760 1666.3Z" fill="#0a7cb6" stroke="#0a7cb6"></path><path d="M857 1417.6L943 1744.3L1181 1439.6Z" fill="#09263a" stroke="#09263a"></path><path d="M567 2287.7L852 2517.4L946 2317.7Z" fill="#09263a" stroke="#09263a"></path><path d="M3352 4000L3572 4000L3341 3768.3Z" fill="#0e496c" stroke="#0e496c"></path><path d="M4224 4000L4155 3667.3L3921 3752.3Z" fill="#071b2a" stroke="#071b2a"></path><path d="M3921 3752.3L4155 3667.3L3905 3483.6Z" fill="#09263a" stroke="#09263a"></path><path d="M1792 3674.3L2139 4000L2155 3667.3Z" fill="#0d6fa3" stroke="#0d6fa3"></path><path d="M1803 4000L2139 4000L1792 3674.3Z" fill="#0e496c" stroke="#0e496c"></path><path d="M4848 2834.1L4846 2543.4L4545 2879.1Z" fill="#0a7cb6" stroke="#0a7cb6"></path><path d="M1478 807.1L1254 901.1L1463 1109.9Z" fill="#0d6fa3" stroke="#0d6fa3"></path><path d="M952 1124.9L857 1417.6L1181 1439.6Z" fill="#071b2a" stroke="#071b2a"></path><path d="M1460 538.4L1478 807.1L1800 619.4Z" fill="#0e6290" stroke="#0e6290"></path><path d="M3865 244.7L3631 234.7L3587 535.4Z" fill="#0a7cb6" stroke="#0a7cb6"></path><path d="M3271 0L2990 0L2984 310.7Z" fill="#0e6290" stroke="#0e6290"></path><path d="M3865 244.7L3587 535.4L3939 574.4Z" fill="#0f557e" stroke="#0f557e"></path><path d="M4500 823.1L4224 875.1L4482 1130.9Z" fill="#0d6fa3" stroke="#0d6fa3"></path><path d="M4500 823.1L4249 611.4L4224 875.1Z" fill="#09263a" stroke="#09263a"></path><path d="M2421 240.7L2053 251.7L2398 535.4Z" fill="#00101c" stroke="#00101c"></path><path d="M567 2287.7L946 2317.7L946 2049Z" fill="#0d3d5b" stroke="#0d3d5b"></path><path d="M946 2317.7L852 2517.4L1235 2574.4Z" fill="#0a7cb6" stroke="#0a7cb6"></path><path d="M852 2517.4L935 2833.1L1235 2574.4Z" fill="#0b314a" stroke="#0b314a"></path><path d="M4478 3754.3L4529 3396.6L4229 3400.6Z" fill="#00101c" stroke="#00101c"></path><path d="M4786 3135.9L4848 2834.1L4545 2879.1Z" fill="#0d6fa3" stroke="#0d6fa3"></path><path d="M5049 1700.3L4760 1666.3L4770 2052Z" fill="#0e496c" stroke="#0e496c"></path><path d="M4760 1666.3L4840 1455.6L4487 1447.6Z" fill="#0e496c" stroke="#0e496c"></path><path d="M5064 2033L4770 2052L4830 2305.7Z" fill="#071b2a" stroke="#071b2a"></path><path d="M1191 3674.3L1492 3695.3L1488 3465.6Z" fill="#0d6fa3" stroke="#0d6fa3"></path><path d="M1488 3465.6L1492 3695.3L1792 3674.3Z" fill="#0b314a" stroke="#0b314a"></path><path d="M1145 3473.6L1488 3465.6L1237 3186.9Z" fill="#0f557e" stroke="#0f557e"></path><path d="M4786 1090.9L4500 823.1L4482 1130.9Z" fill="#0e6290" stroke="#0e6290"></path><path d="M4786 3135.9L4545 2879.1L4536 3179.9Z" fill="#0a7cb6" stroke="#0a7cb6"></path><path d="M5097 2317.7L5064 2033L4830 2305.7Z" fill="#048ac9" stroke="#048ac9"></path><path d="M2053 251.7L1797 331.7L2068 579.4Z" fill="#0e6290" stroke="#0e6290"></path><path d="M4200 319.7L3939 574.4L4249 611.4Z" fill="#0e496c" stroke="#0e496c"></path><path d="M4200 319.7L3865 244.7L3939 574.4Z" fill="#0d3d5b" stroke="#0d3d5b"></path><path d="M1797 331.7L1460 538.4L1800 619.4Z" fill="#09263a" stroke="#09263a"></path><path d="M3271 0L3322 327.7L3631 234.7Z" fill="#048ac9" stroke="#048ac9"></path><path d="M3271 0L2984 310.7L3322 327.7Z" fill="#00101c" stroke="#00101c"></path><path d="M2421 240.7L2377 0L2053 251.7Z" fill="#00101c" stroke="#00101c"></path><path d="M2990 0L2693 0L2690 290.7Z" fill="#0b314a" stroke="#0b314a"></path><path d="M2053 251.7L1835 0L1797 331.7Z" fill="#0d3d5b" stroke="#0d3d5b"></path><path d="M952 1124.9L1236 1188.9L1254 901.1Z" fill="#0e6290" stroke="#0e6290"></path><path d="M952 1124.9L1181 1439.6L1236 1188.9Z" fill="#071b2a" stroke="#071b2a"></path><path d="M943 1744.3L625 1947L946 2049Z" fill="#0d6fa3" stroke="#0d6fa3"></path><path d="M3572 4000L3950 4000L3640 3766.3Z" fill="#0d6fa3" stroke="#0d6fa3"></path><path d="M4155 3667.3L4478 3754.3L4229 3400.6Z" fill="#048ac9" stroke="#048ac9"></path><path d="M1544 4000L1803 4000L1792 3674.3Z" fill="#0e496c" stroke="#0e496c"></path><path d="M4818 3386.6L4536 3179.9L4529 3396.6Z" fill="#0b314a" stroke="#0b314a"></path><path d="M4818 3386.6L4786 3135.9L4536 3179.9Z" fill="#071b2a" stroke="#071b2a"></path><path d="M3612 0L3271 0L3631 234.7Z" fill="#0d3d5b" stroke="#0d3d5b"></path><path d="M4840 1455.6L4786 1090.9L4487 1447.6Z" fill="#0e496c" stroke="#0e496c"></path><path d="M937 872.1L952 1124.9L1254 901.1Z" fill="#0d6fa3" stroke="#0d6fa3"></path><path d="M5097 2317.7L4846 2543.4L5097 2599.4Z" fill="#00101c" stroke="#00101c"></path><path d="M5097 2317.7L4830 2305.7L4846 2543.4Z" fill="#0e6290" stroke="#0e6290"></path><path d="M4840 1455.6L5106 1177.9L4786 1090.9Z" fill="#0e496c" stroke="#0e496c"></path><path d="M948 3176.9L1145 3473.6L1237 3186.9Z" fill="#0a7cb6" stroke="#0a7cb6"></path><path d="M1492 3695.3L1544 4000L1792 3674.3Z" fill="#0a7cb6" stroke="#0a7cb6"></path><path d="M652 2912.1L948 3176.9L935 2833.1Z" fill="#0b314a" stroke="#0b314a"></path><path d="M935 2833.1L948 3176.9L1191 2814.1Z" fill="#0e6290" stroke="#0e6290"></path><path d="M2693 0L2377 0L2421 240.7Z" fill="#0f557e" stroke="#0f557e"></path><path d="M5064 2033L5049 1700.3L4770 2052Z" fill="#0e6290" stroke="#0e6290"></path><path d="M4500 823.1L4462 578.4L4249 611.4Z" fill="#0d6fa3" stroke="#0d6fa3"></path><path d="M4792 619.4L4462 578.4L4500 823.1Z" fill="#0e6290" stroke="#0e6290"></path><path d="M5097 2599.4L4846 2543.4L4848 2834.1Z" fill="#09263a" stroke="#09263a"></path><path d="M5441 1709.3L5101 1452.6L5049 1700.3Z" fill="#09263a" stroke="#09263a"></path><path d="M4462 578.4L4200 319.7L4249 611.4Z" fill="#0a7cb6" stroke="#0a7cb6"></path><path d="M3865 244.7L3612 0L3631 234.7Z" fill="#071b2a" stroke="#071b2a"></path><path d="M3938 0L3612 0L3865 244.7Z" fill="#071b2a" stroke="#071b2a"></path><path d="M544 1750.3L943 1744.3L585 1448.6Z" fill="#0a7cb6" stroke="#0a7cb6"></path><path d="M544 1750.3L625 1947L943 1744.3Z" fill="#0d6fa3" stroke="#0d6fa3"></path><path d="M852 2517.4L591 2574.4L935 2833.1Z" fill="#071b2a" stroke="#071b2a"></path><path d="M5128 2910.1L5097 2599.4L4848 2834.1Z" fill="#09263a" stroke="#09263a"></path><path d="M4224 4000L4478 3754.3L4155 3667.3Z" fill="#0f557e" stroke="#0f557e"></path><path d="M5113 3129.9L5128 2910.1L4848 2834.1Z" fill="#0b314a" stroke="#0b314a"></path><path d="M858 3696.3L1191 3674.3L1145 3473.6Z" fill="#0f557e" stroke="#0f557e"></path><path d="M1145 3473.6L1191 3674.3L1488 3465.6Z" fill="#09263a" stroke="#09263a"></path><path d="M2377 0L2052 0L2053 251.7Z" fill="#0e496c" stroke="#0e496c"></path><path d="M1797 331.7L1526 257.7L1460 538.4Z" fill="#0d6fa3" stroke="#0d6fa3"></path><path d="M1145 4000L1544 4000L1492 3695.3Z" fill="#0e6290" stroke="#0e6290"></path><path d="M3950 4000L4224 4000L3921 3752.3Z" fill="#048ac9" stroke="#048ac9"></path><path d="M4775 3705.3L4818 3386.6L4529 3396.6Z" fill="#0f557e" stroke="#0f557e"></path><path d="M1835 0L1526 257.7L1797 331.7Z" fill="#0b314a" stroke="#0b314a"></path><path d="M1152 565.4L937 872.1L1254 901.1Z" fill="#0e496c" stroke="#0e496c"></path><path d="M625 1947L567 2287.7L946 2049Z" fill="#09263a" stroke="#09263a"></path><path d="M1152 565.4L1478 807.1L1460 538.4Z" fill="#0e6290" stroke="#0e6290"></path><path d="M652 1104.9L585 1448.6L857 1417.6Z" fill="#0e6290" stroke="#0e6290"></path><path d="M5049 1700.3L5101 1452.6L4840 1455.6Z" fill="#0d6fa3" stroke="#0d6fa3"></path><path d="M4786 1090.9L4827 858.1L4500 823.1Z" fill="#071b2a" stroke="#071b2a"></path><path d="M5370 2020L5049 1700.3L5064 2033Z" fill="#0d3d5b" stroke="#0d3d5b"></path><path d="M5370 2020L5064 2033L5097 2317.7Z" fill="#0b314a" stroke="#0b314a"></path><path d="M567 2287.7L591 2574.4L852 2517.4Z" fill="#00101c" stroke="#00101c"></path><path d="M948 3176.9L922 3409.6L1145 3473.6Z" fill="#0d6fa3" stroke="#0d6fa3"></path><path d="M5049 875.1L4827 858.1L4786 1090.9Z" fill="#0d6fa3" stroke="#0d6fa3"></path><path d="M4462 578.4L4493 303.7L4200 319.7Z" fill="#0d6fa3" stroke="#0d6fa3"></path><path d="M607 3100.9L922 3409.6L948 3176.9Z" fill="#0d3d5b" stroke="#0d3d5b"></path><path d="M1237 241.7L1152 565.4L1460 538.4Z" fill="#0d6fa3" stroke="#0d6fa3"></path><path d="M591 2574.4L652 2912.1L935 2833.1Z" fill="#071b2a" stroke="#071b2a"></path><path d="M585 1448.6L943 1744.3L857 1417.6Z" fill="#0d6fa3" stroke="#0d6fa3"></path><path d="M625 1947L339 2052L567 2287.7Z" fill="#09263a" stroke="#09263a"></path><path d="M2052 0L1835 0L2053 251.7Z" fill="#071b2a" stroke="#071b2a"></path><path d="M1526 257.7L1237 241.7L1460 538.4Z" fill="#0f557e" stroke="#0f557e"></path><path d="M5113 3129.9L4848 2834.1L4786 3135.9Z" fill="#0f557e" stroke="#0f557e"></path><path d="M5430 2294.7L5370 2020L5097 2317.7Z" fill="#071b2a" stroke="#071b2a"></path><path d="M4200 319.7L3938 0L3865 244.7Z" fill="#0f557e" stroke="#0f557e"></path><path d="M4229 0L3938 0L4200 319.7Z" fill="#0a7cb6" stroke="#0a7cb6"></path><path d="M652 1104.9L857 1417.6L952 1124.9Z" fill="#0b314a" stroke="#0b314a"></path><path d="M5101 1452.6L5106 1177.9L4840 1455.6Z" fill="#0e496c" stroke="#0e496c"></path><path d="M5449 1375.6L5106 1177.9L5101 1452.6Z" fill="#0e6290" stroke="#0e6290"></path><path d="M5049 875.1L4792 619.4L4827 858.1Z" fill="#0f557e" stroke="#0f557e"></path><path d="M4827 858.1L4792 619.4L4500 823.1Z" fill="#0e496c" stroke="#0e496c"></path><path d="M4747 321.7L4493 303.7L4462 578.4Z" fill="#0d3d5b" stroke="#0d3d5b"></path><path d="M4818 3386.6L5113 3129.9L4786 3135.9Z" fill="#048ac9" stroke="#048ac9"></path><path d="M5054 3423.6L5113 3129.9L4818 3386.6Z" fill="#00101c" stroke="#00101c"></path><path d="M557 855.1L652 1104.9L937 872.1Z" fill="#0d6fa3" stroke="#0d6fa3"></path><path d="M937 872.1L652 1104.9L952 1124.9Z" fill="#0d3d5b" stroke="#0d3d5b"></path><path d="M4767 4000L4775 3705.3L4478 3754.3Z" fill="#0f557e" stroke="#0f557e"></path><path d="M4478 3754.3L4775 3705.3L4529 3396.6Z" fill="#0a7cb6" stroke="#0a7cb6"></path><path d="M342 2837.1L607 3100.9L652 2912.1Z" fill="#00101c" stroke="#00101c"></path><path d="M652 2912.1L607 3100.9L948 3176.9Z" fill="#0e496c" stroke="#0e496c"></path><path d="M953 4000L1145 4000L1191 3674.3Z" fill="#0f557e" stroke="#0f557e"></path><path d="M342 2837.1L652 2912.1L591 2574.4Z" fill="#0d3d5b" stroke="#0d3d5b"></path><path d="M4224 4000L4498 4000L4478 3754.3Z" fill="#00101c" stroke="#00101c"></path><path d="M5097 2317.7L5097 2599.4L5453 2548.4Z" fill="#0b314a" stroke="#0b314a"></path><path d="M5430 2294.7L5097 2317.7L5453 2548.4Z" fill="#0e496c" stroke="#0e496c"></path><path d="M1483 0L1237 241.7L1526 257.7Z" fill="#0a7cb6" stroke="#0a7cb6"></path><path d="M1152 565.4L865 552.4L937 872.1Z" fill="#0d3d5b" stroke="#0d3d5b"></path><path d="M5106 1177.9L5049 875.1L4786 1090.9Z" fill="#09263a" stroke="#09263a"></path><path d="M4519 0L4229 0L4493 303.7Z" fill="#0b314a" stroke="#0b314a"></path><path d="M5408 1142.9L5049 875.1L5106 1177.9Z" fill="#0d6fa3" stroke="#0d6fa3"></path><path d="M4775 3705.3L5054 3423.6L4818 3386.6Z" fill="#0d3d5b" stroke="#0d3d5b"></path><path d="M5346 2865.1L5097 2599.4L5128 2910.1Z" fill="#0f557e" stroke="#0f557e"></path><path d="M5134 3707.3L5054 3423.6L4775 3705.3Z" fill="#0e6290" stroke="#0e6290"></path><path d="M4747 321.7L4462 578.4L4792 619.4Z" fill="#048ac9" stroke="#048ac9"></path><path d="M4493 303.7L4229 0L4200 319.7Z" fill="#0e496c" stroke="#0e496c"></path><path d="M327 1672.3L339 2052L544 1750.3Z" fill="#00101c" stroke="#00101c"></path><path d="M544 1750.3L339 2052L625 1947Z" fill="#0b314a" stroke="#0b314a"></path><path d="M567 2287.7L309 2524.4L591 2574.4Z" fill="#0f557e" stroke="#0f557e"></path><path d="M327 1672.3L544 1750.3L585 1448.6Z" fill="#0a7cb6" stroke="#0a7cb6"></path><path d="M858 3696.3L1145 3473.6L922 3409.6Z" fill="#0e6290" stroke="#0e6290"></path><path d="M1191 3674.3L1145 4000L1492 3695.3Z" fill="#0e496c" stroke="#0e496c"></path><path d="M613 3464.6L858 3696.3L922 3409.6Z" fill="#0b314a" stroke="#0b314a"></path><path d="M1835 0L1483 0L1526 257.7Z" fill="#0e6290" stroke="#0e6290"></path><path d="M5346 2865.1L5128 2910.1L5113 3129.9Z" fill="#071b2a" stroke="#071b2a"></path><path d="M850 275.7L865 552.4L1152 565.4Z" fill="#0d6fa3" stroke="#0d6fa3"></path><path d="M850 275.7L1152 565.4L1237 241.7Z" fill="#0a7cb6" stroke="#0a7cb6"></path><path d="M5439 3146.9L5346 2865.1L5113 3129.9Z" fill="#00101c" stroke="#00101c"></path><path d="M335 1382.6L327 1672.3L585 1448.6Z" fill="#0f557e" stroke="#0f557e"></path><path d="M335 1382.6L585 1448.6L652 1104.9Z" fill="#0e496c" stroke="#0e496c"></path><path d="M0 2249.7L288 2282.7L339 2052Z" fill="#09263a" stroke="#09263a"></path><path d="M339 2052L288 2282.7L567 2287.7Z" fill="#0d3d5b" stroke="#0d3d5b"></path><path d="M5648 1742.3L5441 1709.3L5690 1972Z" fill="#0e6290" stroke="#0e6290"></path><path d="M5370 2020L5441 1709.3L5049 1700.3Z" fill="#0b314a" stroke="#0b314a"></path><path d="M288 2282.7L309 2524.4L567 2287.7Z" fill="#0e496c" stroke="#0e496c"></path><path d="M607 3100.9L613 3464.6L922 3409.6Z" fill="#09263a" stroke="#09263a"></path><path d="M5131 544.4L4747 321.7L4792 619.4Z" fill="#0d6fa3" stroke="#0d6fa3"></path><path d="M5346 2865.1L5453 2548.4L5097 2599.4Z" fill="#0e6290" stroke="#0e6290"></path><path d="M5690 1972L5441 1709.3L5370 2020Z" fill="#09263a" stroke="#09263a"></path><path d="M321 3394.6L613 3464.6L607 3100.9Z" fill="#048ac9" stroke="#048ac9"></path><path d="M858 3696.3L953 4000L1191 3674.3Z" fill="#0e496c" stroke="#0e496c"></path><path d="M309 2524.4L342 2837.1L591 2574.4Z" fill="#00101c" stroke="#00101c"></path><path d="M865 552.4L557 855.1L937 872.1Z" fill="#0e496c" stroke="#0e496c"></path><path d="M4498 4000L4767 4000L4478 3754.3Z" fill="#0d6fa3" stroke="#0d6fa3"></path><path d="M5426 3444.6L5439 3146.9L5113 3129.9Z" fill="#00101c" stroke="#00101c"></path><path d="M300 1177.9L335 1382.6L652 1104.9Z" fill="#071b2a" stroke="#071b2a"></path><path d="M0 1978L0 2249.7L339 2052Z" fill="#0d3d5b" stroke="#0d3d5b"></path><path d="M624 4000L953 4000L858 3696.3Z" fill="#09263a" stroke="#09263a"></path><path d="M5441 1709.3L5449 1375.6L5101 1452.6Z" fill="#0d6fa3" stroke="#0d6fa3"></path><path d="M5049 875.1L5131 544.4L4792 619.4Z" fill="#0b314a" stroke="#0b314a"></path><path d="M5697 1467.6L5449 1375.6L5441 1709.3Z" fill="#0f557e" stroke="#0f557e"></path><path d="M1483 0L1253 0L1237 241.7Z" fill="#0d6fa3" stroke="#0d6fa3"></path><path d="M865 552.4L592 585.4L557 855.1Z" fill="#0d6fa3" stroke="#0d6fa3"></path><path d="M4747 321.7L4519 0L4493 303.7Z" fill="#0d3d5b" stroke="#0d3d5b"></path><path d="M5449 1375.6L5408 1142.9L5106 1177.9Z" fill="#0f557e" stroke="#0f557e"></path><path d="M4747 321.7L4800 0L4519 0Z" fill="#0e6290" stroke="#0e6290"></path><path d="M5056 4000L5134 3707.3L4775 3705.3Z" fill="#048ac9" stroke="#048ac9"></path><path d="M5718 2852.1L5739 2515.4L5453 2548.4Z" fill="#0d3d5b" stroke="#0d3d5b"></path><path d="M334 871.1L300 1177.9L652 1104.9Z" fill="#09263a" stroke="#09263a"></path><path d="M0 1978L339 2052L0 1769.3Z" fill="#071b2a" stroke="#071b2a"></path><path d="M5426 3444.6L5113 3129.9L5054 3423.6Z" fill="#0b314a" stroke="#0b314a"></path><path d="M898 0L850 275.7L1237 241.7Z" fill="#071b2a" stroke="#071b2a"></path><path d="M557 855.1L334 871.1L652 1104.9Z" fill="#0d6fa3" stroke="#0d6fa3"></path><path d="M5439 808.1L5131 544.4L5049 875.1Z" fill="#048ac9" stroke="#048ac9"></path><path d="M552 312.7L592 585.4L865 552.4Z" fill="#0e496c" stroke="#0e496c"></path><path d="M5684 2277.7L5430 2294.7L5453 2548.4Z" fill="#0d6fa3" stroke="#0d6fa3"></path><path d="M5684 2277.7L5370 2020L5430 2294.7Z" fill="#0d3d5b" stroke="#0d3d5b"></path><path d="M5449 1375.6L5664 1150.9L5408 1142.9Z" fill="#0f557e" stroke="#0f557e"></path><path d="M5739 2515.4L5684 2277.7L5453 2548.4Z" fill="#00101c" stroke="#00101c"></path><path d="M312 3686.3L571 3749.3L613 3464.6Z" fill="#0e496c" stroke="#0e496c"></path><path d="M613 3464.6L571 3749.3L858 3696.3Z" fill="#0a7cb6" stroke="#0a7cb6"></path><path d="M5684 2277.7L5690 1972L5370 2020Z" fill="#0e6290" stroke="#0e6290"></path><path d="M342 2837.1L254 3176.9L607 3100.9Z" fill="#0e6290" stroke="#0e6290"></path><path d="M0 2866.1L254 3176.9L342 2837.1Z" fill="#048ac9" stroke="#048ac9"></path><path d="M0 2603.4L342 2837.1L309 2524.4Z" fill="#071b2a" stroke="#071b2a"></path><path d="M0 2249.7L309 2524.4L288 2282.7Z" fill="#0d6fa3" stroke="#0d6fa3"></path><path d="M592 585.4L334 871.1L557 855.1Z" fill="#0e496c" stroke="#0e496c"></path><path d="M246 554.4L334 871.1L592 585.4Z" fill="#048ac9" stroke="#048ac9"></path><path d="M254 3176.9L321 3394.6L607 3100.9Z" fill="#0b314a" stroke="#0b314a"></path><path d="M5134 3707.3L5426 3444.6L5054 3423.6Z" fill="#0e6290" stroke="#0e6290"></path><path d="M5718 2852.1L5453 2548.4L5346 2865.1Z" fill="#0b314a" stroke="#0b314a"></path><path d="M4767 4000L5056 4000L4775 3705.3Z" fill="#0e496c" stroke="#0e496c"></path><path d="M5134 3707.3L5432 3749.3L5426 3444.6Z" fill="#0b314a" stroke="#0b314a"></path><path d="M5058 237.7L4800 0L4747 321.7Z" fill="#071b2a" stroke="#071b2a"></path><path d="M327 1672.3L0 1477.6L0 1769.3Z" fill="#071b2a" stroke="#071b2a"></path><path d="M339 2052L327 1672.3L0 1769.3Z" fill="#0b314a" stroke="#0b314a"></path><path d="M327 1672.3L335 1382.6L0 1477.6Z" fill="#00101c" stroke="#00101c"></path><path d="M5408 1142.9L5439 808.1L5049 875.1Z" fill="#0e496c" stroke="#0e496c"></path><path d="M5131 544.4L5058 237.7L4747 321.7Z" fill="#048ac9" stroke="#048ac9"></path><path d="M5657 829.1L5439 808.1L5408 1142.9Z" fill="#0a7cb6" stroke="#0a7cb6"></path><path d="M5718 2852.1L5346 2865.1L5439 3146.9Z" fill="#0b314a" stroke="#0b314a"></path><path d="M5684 2277.7L6000 2249.7L5690 1972Z" fill="#00101c" stroke="#00101c"></path><path d="M5372 270.7L5058 237.7L5131 544.4Z" fill="#09263a" stroke="#09263a"></path><path d="M6000 1763.3L5697 1467.6L5648 1742.3Z" fill="#0e496c" stroke="#0e496c"></path><path d="M5648 1742.3L5697 1467.6L5441 1709.3Z" fill="#071b2a" stroke="#071b2a"></path><path d="M6000 1763.3L5648 1742.3L5690 1972Z" fill="#0e496c" stroke="#0e496c"></path><path d="M0 1477.6L335 1382.6L0 1175.9Z" fill="#00101c" stroke="#00101c"></path><path d="M1253 0L898 0L1237 241.7Z" fill="#09263a" stroke="#09263a"></path><path d="M850 275.7L552 312.7L865 552.4Z" fill="#048ac9" stroke="#048ac9"></path><path d="M0 2249.7L0 2603.4L309 2524.4Z" fill="#071b2a" stroke="#071b2a"></path><path d="M0 3678.3L312 3686.3L321 3394.6Z" fill="#0a7cb6" stroke="#0a7cb6"></path><path d="M571 3749.3L624 4000L858 3696.3Z" fill="#0f557e" stroke="#0f557e"></path><path d="M299 4000L624 4000L571 3749.3Z" fill="#0e496c" stroke="#0e496c"></path><path d="M5646 3189.9L5718 2852.1L5439 3146.9Z" fill="#048ac9" stroke="#048ac9"></path><path d="M5707 517.4L5345 544.4L5439 808.1Z" fill="#0d3d5b" stroke="#0d3d5b"></path><path d="M5439 808.1L5345 544.4L5131 544.4Z" fill="#0f557e" stroke="#0f557e"></path><path d="M0 1175.9L335 1382.6L300 1177.9Z" fill="#0d3d5b" stroke="#0d3d5b"></path><path d="M5697 1467.6L5664 1150.9L5449 1375.6Z" fill="#0d3d5b" stroke="#0d3d5b"></path><path d="M628 0L552 312.7L850 275.7Z" fill="#00101c" stroke="#00101c"></path><path d="M334 871.1L0 1175.9L300 1177.9Z" fill="#048ac9" stroke="#048ac9"></path><path d="M5691 3399.6L5646 3189.9L5426 3444.6Z" fill="#071b2a" stroke="#071b2a"></path><path d="M5426 3444.6L5646 3189.9L5439 3146.9Z" fill="#0e496c" stroke="#0e496c"></path><path d="M0 2603.4L0 2866.1L342 2837.1Z" fill="#09263a" stroke="#09263a"></path><path d="M321 3394.6L312 3686.3L613 3464.6Z" fill="#0a7cb6" stroke="#0a7cb6"></path><path d="M0 3374.6L321 3394.6L254 3176.9Z" fill="#0b314a" stroke="#0b314a"></path><path d="M5345 4000L5432 3749.3L5134 3707.3Z" fill="#0d3d5b" stroke="#0d3d5b"></path><path d="M0 834.1L0 1175.9L334 871.1Z" fill="#048ac9" stroke="#048ac9"></path><path d="M0 2866.1L0 3187.9L254 3176.9Z" fill="#0e6290" stroke="#0e6290"></path><path d="M6000 1094.9L5657 829.1L5664 1150.9Z" fill="#09263a" stroke="#09263a"></path><path d="M5664 1150.9L5657 829.1L5408 1142.9Z" fill="#071b2a" stroke="#071b2a"></path><path d="M5345 544.4L5372 270.7L5131 544.4Z" fill="#09263a" stroke="#09263a"></path><path d="M293 297.7L246 554.4L552 312.7Z" fill="#0d6fa3" stroke="#0d6fa3"></path><path d="M552 312.7L246 554.4L592 585.4Z" fill="#00101c" stroke="#00101c"></path><path d="M5652 3716.3L5691 3399.6L5426 3444.6Z" fill="#0b314a" stroke="#0b314a"></path><path d="M6000 3115.9L6000 2803.1L5718 2852.1Z" fill="#0e6290" stroke="#0e6290"></path><path d="M6000 2552.4L6000 2249.7L5739 2515.4Z" fill="#0d6fa3" stroke="#0d6fa3"></path><path d="M5056 4000L5345 4000L5134 3707.3Z" fill="#0e496c" stroke="#0e496c"></path><path d="M5432 3749.3L5652 3716.3L5426 3444.6Z" fill="#0b314a" stroke="#0b314a"></path><path d="M898 0L628 0L850 275.7Z" fill="#071b2a" stroke="#071b2a"></path><path d="M5707 517.4L5372 270.7L5345 544.4Z" fill="#0b314a" stroke="#0b314a"></path><path d="M5058 237.7L5155 0L4800 0Z" fill="#0d6fa3" stroke="#0d6fa3"></path><path d="M5372 270.7L5155 0L5058 237.7Z" fill="#0f557e" stroke="#0f557e"></path><path d="M6000 2552.4L5739 2515.4L6000 2803.1Z" fill="#0d6fa3" stroke="#0d6fa3"></path><path d="M5739 2515.4L6000 2249.7L5684 2277.7Z" fill="#048ac9" stroke="#048ac9"></path><path d="M5697 1467.6L6000 1441.6L5664 1150.9Z" fill="#0e6290" stroke="#0e6290"></path><path d="M6000 2249.7L6000 1986L5690 1972Z" fill="#0a7cb6" stroke="#0a7cb6"></path><path d="M0 3187.9L0 3374.6L254 3176.9Z" fill="#071b2a" stroke="#071b2a"></path><path d="M312 3686.3L299 4000L571 3749.3Z" fill="#0a7cb6" stroke="#0a7cb6"></path><path d="M6000 1986L6000 1763.3L5690 1972Z" fill="#0d6fa3" stroke="#0d6fa3"></path><path d="M6000 2803.1L5739 2515.4L5718 2852.1Z" fill="#09263a" stroke="#09263a"></path><path d="M0 619.4L0 834.1L246 554.4Z" fill="#0d6fa3" stroke="#0d6fa3"></path><path d="M246 554.4L0 834.1L334 871.1Z" fill="#00101c" stroke="#00101c"></path><path d="M275 0L293 297.7L552 312.7Z" fill="#0a7cb6" stroke="#0a7cb6"></path><path d="M0 3678.3L299 4000L312 3686.3Z" fill="#0e496c" stroke="#0e496c"></path><path d="M5676 4000L5652 3716.3L5432 3749.3Z" fill="#0e496c" stroke="#0e496c"></path><path d="M6000 3115.9L5718 2852.1L5646 3189.9Z" fill="#0b314a" stroke="#0b314a"></path><path d="M6000 3115.9L5646 3189.9L5691 3399.6Z" fill="#00101c" stroke="#00101c"></path><path d="M6000 1763.3L6000 1441.6L5697 1467.6Z" fill="#0f557e" stroke="#0f557e"></path><path d="M5657 829.1L5707 517.4L5439 808.1Z" fill="#09263a" stroke="#09263a"></path><path d="M0 278.7L0 619.4L246 554.4Z" fill="#0f557e" stroke="#0f557e"></path><path d="M6000 619.4L5707 517.4L5657 829.1Z" fill="#0a7cb6" stroke="#0a7cb6"></path><path d="M5372 270.7L5362 0L5155 0Z" fill="#071b2a" stroke="#071b2a"></path><path d="M0 3374.6L0 3678.3L321 3394.6Z" fill="#0d3d5b" stroke="#0d3d5b"></path><path d="M6000 3415.6L6000 3115.9L5691 3399.6Z" fill="#00101c" stroke="#00101c"></path><path d="M5724 0L5362 0L5372 270.7Z" fill="#0d3d5b" stroke="#0d3d5b"></path><path d="M6000 1441.6L6000 1094.9L5664 1150.9Z" fill="#048ac9" stroke="#048ac9"></path><path d="M5345 4000L5676 4000L5432 3749.3Z" fill="#0d6fa3" stroke="#0d6fa3"></path><path d="M5652 3716.3L6000 3415.6L5691 3399.6Z" fill="#0b314a" stroke="#0b314a"></path><path d="M628 0L275 0L552 312.7Z" fill="#0f557e" stroke="#0f557e"></path><path d="M293 297.7L0 278.7L246 554.4Z" fill="#0f557e" stroke="#0f557e"></path><path d="M6000 3754.3L6000 3415.6L5652 3716.3Z" fill="#0e496c" stroke="#0e496c"></path><path d="M6000 1094.9L6000 825.1L5657 829.1Z" fill="#09263a" stroke="#09263a"></path><path d="M5707 517.4L5727 279.7L5372 270.7Z" fill="#048ac9" stroke="#048ac9"></path><path d="M6000 256.7L5727 279.7L5707 517.4Z" fill="#00101c" stroke="#00101c"></path><path d="M275 0L0 278.7L293 297.7Z" fill="#0d6fa3" stroke="#0d6fa3"></path><path d="M0 3678.3L0 4000L299 4000Z" fill="#0f557e" stroke="#0f557e"></path><path d="M6000 825.1L6000 619.4L5657 829.1Z" fill="#071b2a" stroke="#071b2a"></path><path d="M5676 4000L6000 3754.3L5652 3716.3Z" fill="#0e496c" stroke="#0e496c"></path><path d="M6000 256.7L5724 0L5727 279.7Z" fill="#0b314a" stroke="#0b314a"></path><path d="M5727 279.7L5724 0L5372 270.7Z" fill="#0b314a" stroke="#0b314a"></path><path d="M275 0L0 0L0 278.7Z" fill="#0f557e" stroke="#0f557e"></path><path d="M5676 4000L6000 4000L6000 3754.3Z" fill="#0d6fa3" stroke="#0d6fa3"></path><path d="M6000 619.4L6000 256.7L5707 517.4Z" fill="#0f557e" stroke="#0f557e"></path><path d="M6000 256.7L6000 0L5724 0Z" fill="#0d6fa3" stroke="#0d6fa3"></path></g></svg>