<svg id="visual" viewBox="0 0 1920 1080" width="1920" height="1080" xmlns="http://www.w3.org/2000/svg" xmlns:xlink="http://www.w3.org/1999/xlink" version="1.1"><rect x="0" y="0" width="1920" height="1080" fill="#002233"></rect><path d="M0 887L17.8 891.7C35.7 896.3 71.3 905.7 106.8 883.3C142.3 861 177.7 807 213.2 805C248.7 803 284.3 853 320 868.2C355.7 883.3 391.3 863.7 426.8 836.2C462.3 808.7 497.7 773.3 533.2 777C568.7 780.7 604.3 823.3 640 836.2C675.7 849 711.3 832 746.8 824.8C782.3 817.7 817.7 820.3 853.2 845.5C888.7 870.7 924.3 918.3 960 930.5C995.7 942.7 1031.3 919.3 1066.8 912.5C1102.3 905.7 1137.7 915.3 1173.2 892.8C1208.7 870.3 1244.3 815.7 1280 799.7C1315.7 783.7 1351.3 806.3 1386.8 822.3C1422.3 838.3 1457.7 847.7 1493.2 833.3C1528.7 819 1564.3 781 1600 767.2C1635.7 753.3 1671.3 763.7 1706.8 792.3C1742.3 821 1777.7 868 1813.2 873C1848.7 878 1884.3 841 1902.2 822.5L1920 804L1920 1081L1902.2 1081C1884.3 1081 1848.7 1081 1813.2 1081C1777.7 1081 1742.3 1081 1706.8 1081C1671.3 1081 1635.7 1081 1600 1081C1564.3 1081 1528.7 1081 1493.2 1081C1457.7 1081 1422.3 1081 1386.8 1081C1351.3 1081 1315.7 1081 1280 1081C1244.3 1081 1208.7 1081 1173.2 1081C1137.7 1081 1102.3 1081 1066.8 1081C1031.3 1081 995.7 1081 960 1081C924.3 1081 888.7 1081 853.2 1081C817.7 1081 782.3 1081 746.8 1081C711.3 1081 675.7 1081 640 1081C604.3 1081 568.7 1081 533.2 1081C497.7 1081 462.3 1081 426.8 1081C391.3 1081 355.7 1081 320 1081C284.3 1081 248.7 1081 213.2 1081C177.7 1081 142.3 1081 106.8 1081C71.3 1081 35.7 1081 17.8 1081L0 1081Z" fill="#0066FF" stroke-linecap="round" stroke-linejoin="miter"></path></svg>